With: Richard Riehle, Kaitlyn Maher and the voices of Zachary Gordon

The Search for Santa Paws 2010,
Als de Kerstman en zijn nieuwe beste vriend Paws, ontdekken dat de jongens en de meisjes van de wereld de geest van Kerstmis hebben verloren, ondernemen ze een trip naar New York. Maar nadat de Kerstman zijn geheugen verliest, is het aan Paws, het trouwe weesmeisje Quinn, haar nieuwe vriend Will en een wonderbaarlijke groep van magische, pratende honden, om de Kerstman uit de nood te helpen en de wereld te laten zien waar Kerstmis eigenlijk echt over gaat.

Magic dogs and an elf team up with two children to rescue Santa who has lost his memory. 

Santa Paws 2, The Santa Pups 2012,
Wanneer de vrouw van de Kerstman, mevrouw Claus, naar Pineville reist, hebben de speelse Santa Pups zich verstopt op haar slee. De ondeugende pups laten de vreugdevolle wensen van de kinderen uit Pineville in vervulling gaan. Maar dan gaat er iets heel erg mis: het Kerstgevoel begint te verdwijnen! De Santa Pups en mevrouw Claus moeten nu alles op alles zetten om het kerstfeest te redden.

An all-new Disney holiday classic is born - Santa Paws 2: The Santa Pups. Starring a brand-new litter of the cutest talking pups ever - Hope...
 
http://www.imdb.com/title/tt1544572	http://www.imdb.com/title/tt2414212	

------------------------ Dutch Friends ------------------------
---------------------------------------------------------------
- Bezoek ook eens mijn vrienden op:  http://www.Film-Test.nl --
----- voor mijn Nederlandse Sync. ondertitels ---- en meer ----
------- http://www.Film-Test.nl ---- Over Films en meer -------
---------------------------------------------------------------

General:

Complete name                    : Santa PawsThe Santa Pups.avi
Format                           : AVI
Format/Info                      : Audio Video Interleave
File size                        : 1.51 GiB
Duration                         : 1h 22mn
Overall bit rate                 : 2 618 Kbps

Video:

Format                           : MPEG-4 Visual
Format profile                   : Simple@L3
Format settings, BVOP            : No
Format settings, QPel            : No
Format settings, GMC             : No warppoints
Format settings, Matrix          : Default (H.263)
Codec ID                         : XVID
Codec ID/Hint                    : XviD
Duration                         : 1h 22mn
Bit rate                         : 2 223 Kbps
Width                            : 704 pixels
Height                           : 396 pixels
Display aspect ratio             : 16:9
Frame rate                       : 25.000 fps
Color space                      : YUV
Chroma subsampling               : 4:2:0
Bit depth                        : 8 bits
Scan type                        : Progressive
Compression mode                 : Lossy
Bits/(Pixel*Frame)               : 0.319
Stream size                      : 1.28 GiB (85%)
Writing library                  : XviD 1.1.2 (UTC 2006-11-01)

Audio:

Format                           : AC-3
Format/Info                      : Audio Coding 3
Mode extension                   : CM (complete main)
Codec ID                         : 2000
Duration                         : 1h 22mn
Bit rate mode                    : Constant
Bit rate                         : 384 Kbps
Channel(s)                       : 6 channels
Channel positions                : Front: L C R, Side: L R, LFE
Sampling rate                    : 48.0 KHz
Bit depth                        : 16 bits
Compression mode                 : Lossy
Stream size                      : 227 MiB (15%)
Alignment                        : Aligned on interleaves
Interleave, duration             : 32 ms (0.80 video frame)
Interleave, preload duration     : 32 ms